<svg width="18" height="22" viewBox="0 0 18 22" xmlns="http://www.w3.org/2000/svg"><path d="M9 5a3.75 3.75 0 1 0 0 7.5A3.75 3.75 0 0 0 9 5zM6.75 8.75a2.25 2.25 0 1 1 4.5 0 2.25 2.25 0 0 1-4.5 0z" stroke-width=".5" /><path d="M8.536 21.339L9 20.75l-.464.589a.75.75 0 0 0 .928 0L9 20.75l.464.59.003-.003.005-.004.019-.015a10.579 10.579 0 0 0 .316-.262 29.665 29.665 0 0 0 3.52-3.572c1.903-2.3 3.923-5.532 3.923-8.965C17.25 4.07 13.534.5 9 .5S.75 4.068.75 8.52c0 3.432 2.02 6.663 3.922 8.963a29.665 29.665 0 0 0 3.52 3.573 16.367 16.367 0 0 0 .317.262l.019.015.005.004.003.002zM2.25 8.519C2.25 4.941 5.25 2 9 2s6.75 2.94 6.75 6.52c0 2.889-1.73 5.773-3.578 8.008A28.173 28.173 0 0 1 9 19.772a28.173 28.173 0 0 1-3.172-3.245C3.98 14.294 2.25 11.41 2.25 8.52z" stroke-width=".5" /></svg>